<?xml version="1.0" encoding="UTF-8" standalone="no"?>
<!-- Created with Inkscape (http://www.inkscape.org/) -->

<svg
   xmlns:dc="http://purl.org/dc/elements/1.1/"
   xmlns:cc="http://creativecommons.org/ns#"
   xmlns:rdf="http://www.w3.org/1999/02/22-rdf-syntax-ns#"
   xmlns:svg="http://www.w3.org/2000/svg"
   xmlns="http://www.w3.org/2000/svg"
   xmlns:sodipodi="http://sodipodi.sourceforge.net/DTD/sodipodi-0.dtd"
   xmlns:inkscape="http://www.inkscape.org/namespaces/inkscape"
   width="84"
   height="40"
   id="svg2"
   version="1.1"
   inkscape:version="0.48+devel r13279"
   viewBox="0 0 84 40.000001"
   sodipodi:docname="500.svg">
  <defs
     id="defs4" />
  <sodipodi:namedview
     id="base"
     pagecolor="#ffffff"
     bordercolor="#666666"
     borderopacity="1.0"
     inkscape:pageopacity="0.0"
     inkscape:pageshadow="2"
     inkscape:zoom="4"
     inkscape:cx="-89.488544"
     inkscape:cy="70.375"
     inkscape:document-units="px"
     inkscape:current-layer="g4112"
     showgrid="false"
     inkscape:window-width="3200"
     inkscape:window-height="1725"
     inkscape:window-x="-9"
     inkscape:window-y="-9"
     inkscape:window-maximized="1" />
  <metadata
     id="metadata7">
    <rdf:RDF>
      <cc:Work
         rdf:about="">
        <dc:format>image/svg+xml</dc:format>
        <dc:type
           rdf:resource="http://purl.org/dc/dcmitype/StillImage" />
        <dc:title />
      </cc:Work>
    </rdf:RDF>
  </metadata>
  <g
     inkscape:label="Layer 1"
     inkscape:groupmode="layer"
     id="layer1"
     transform="translate(0,-1012.3622)">
    <g
       id="g4112">
      <path
         style="fill:#000000;fill-opacity:1;opacity:1"
         d="m 12.889579,1052.3451 c -0.153329,-0.021 -0.655135,-0.084 -1.115122,-0.1414 -0.978032,-0.1215 -2.7704364,-0.5567 -3.6329446,-0.8819 -1.8830562,-0.7102 -3.3319042,-1.6393 -4.6903795,-3.0077 -2.0954296,-2.1107 -3.12284424,-4.3952 -3.38656693,-7.5302 l -0.064573326376,-0.7681 3.985591956376,0 3.985582,0 0.1724617,0.8548 c 0.2582534,1.2802 0.8282353,2.3551 1.7187785,3.2414 1.1683682,1.1628 2.3715982,1.6631 4.1887842,1.7415 1.762562,0.076 3.101166,-0.3355 4.326473,-1.3304 1.338145,-1.0865 2.099152,-2.3165 2.615829,-4.228 0.248912,-0.9208 0.220348,-3.232 -0.0524,-4.2364 -0.567637,-2.0908 -1.717511,-3.5448 -3.498149,-4.4234 -1.054651,-0.5204 -2.007701,-0.6906 -3.4818,-0.6218 -2.159404,0.1008 -3.066195,0.5097 -4.6205966,2.0835 l -1.0400099,1.053 -3.4901438,0 c -3.2766427,0 -3.4901439,-0.01 -3.4901439,-0.1648 0,-0.091 0.8572485,-4.981 1.9049833,-10.8675 1.0477447,-5.8865 1.9049932,-10.7145 1.9049932,-10.7289 0,-0.014 4.9343817,-0.026 10.9652907,-0.026 l 10.965291,0 0,3.3053 0,3.3054 -8.109612,0 -8.109613,0 -0.767624,4.3993 c -0.422192,2.4197 -0.7663669,4.4544 -0.7648399,4.5216 0.002,0.067 0.2850508,-0.1181 0.6300341,-0.4119 1.3405508,-1.1416 2.6276558,-1.8195 4.1299198,-2.1751 2.230195,-0.5279 5.018176,-0.4077 7.09092,0.3058 2.70727,0.9319 5.177155,3.1139 6.422492,5.6739 0.248153,0.5101 0.406014,0.6718 0.408918,0.419 0.003,-0.2335 0.948469,-2.082 1.462222,-2.8577 0.677022,-1.0224 2.172209,-2.5199 3.182756,-3.1877 2.073763,-1.3705 4.035195,-2.0392 6.504831,-2.2177 2.863652,-0.207 5.472355,0.3451 7.991654,1.6915 2.395091,1.2799 4.447935,3.0579 7.238221,6.269 0.578496,0.6657 1.083774,1.2225 1.122848,1.2374 0.03902,0.015 0.567526,-0.5508 1.174346,-1.257 2.923346,-3.402 4.974193,-5.1554 7.525518,-6.4341 2.457899,-1.2319 4.866864,-1.7094 7.58078,-1.5024 2.585049,0.1971 4.616754,0.8866 6.577847,2.2324 4.928463,3.3822 6.949878,10.6932 4.783397,17.3004 -1.687689,5.1471 -5.619467,8.4564 -10.758197,9.0549 -1.180045,0.1375 -3.664112,0.057 -4.615147,-0.149 -1.087966,-0.236 -2.551894,-0.7536 -3.68045,-1.3013 -2.516983,-1.2214 -5.027908,-3.2893 -7.948489,-6.546 l -0.609035,-0.6791 -1.333744,1.3775 c -3.54287,3.6589 -4.934521,4.7932 -7.29021,5.9422 -2.260865,1.1027 -3.584369,1.3924 -6.365443,1.3934 -2.634153,10e-4 -3.88978,-0.2512 -5.847191,-1.1742 -2.72725,-1.286 -4.821422,-3.3111 -6.11242,-5.9107 l -0.525788,-1.0588 -0.408749,0.7669 c -0.758093,1.4223 -1.424875,2.3175 -2.621497,3.5197 -1.685305,1.6932 -3.310726,2.7137 -5.484333,3.4434 -1.541276,0.5174 -2.455154,0.6577 -4.508266,0.6923 -1.022185,0.017 -1.983979,0.014 -2.137298,-0.01 z m 29.516042,-8.3225 c 1.490986,-0.3913 3.233009,-1.3026 4.821642,-2.5225 0.788434,-0.6054 3.622664,-3.3673 3.622664,-3.5301 0,-0.136 -3.153135,-3.1571 -3.995832,-3.8285 -3.075996,-2.4509 -5.504752,-3.3264 -7.852257,-2.8303 -2.090849,0.4418 -3.760434,2.2354 -4.419231,4.7475 -0.251866,0.9604 -0.271947,2.5794 -0.04451,3.5847 0.253473,1.1201 0.819153,2.1712 1.580959,2.9376 0.944876,0.9505 2.019369,1.4611 3.48677,1.657 0.618687,0.083 2.098145,-0.031 2.799768,-0.2154 z m 30.041073,0.042 c 2.68655,-0.7045 4.382723,-3.3892 4.205331,-6.6562 -0.163629,-3.0136 -1.852736,-5.3045 -4.436508,-6.0171 -0.825061,-0.2276 -2.6915,-0.2271 -3.523768,9e-4 -1.341738,0.3676 -2.996163,1.3179 -4.506919,2.5888 -0.895124,0.753 -3.949363,3.836 -3.949363,3.9865 0,0.1561 2.519867,2.6946 3.298879,3.3233 1.451952,1.1719 3.165241,2.1579 4.503805,2.5919 1.286177,0.4171 3.209305,0.4965 4.408543,0.182 z"
         id="path4116"
         inkscape:connector-curvature="0" />
    </g>
  </g>
</svg>
