<?xml version="1.0" encoding="UTF-8" standalone="no"?>
<!-- Created with Inkscape (http://www.inkscape.org/) -->

<svg
   xmlns:dc="http://purl.org/dc/elements/1.1/"
   xmlns:cc="http://creativecommons.org/ns#"
   xmlns:rdf="http://www.w3.org/1999/02/22-rdf-syntax-ns#"
   xmlns:svg="http://www.w3.org/2000/svg"
   xmlns="http://www.w3.org/2000/svg"
   xmlns:sodipodi="http://sodipodi.sourceforge.net/DTD/sodipodi-0.dtd"
   xmlns:inkscape="http://www.inkscape.org/namespaces/inkscape"
   width="40"
   height="40"
   id="svg2"
   version="1.1"
   inkscape:version="0.48+devel r13279"
   viewBox="0 0 40 40.000001"
   sodipodi:docname="bloggerlink.svg">
  <defs
     id="defs4" />
  <sodipodi:namedview
     id="base"
     pagecolor="#ffffff"
     bordercolor="#666666"
     borderopacity="1.0"
     inkscape:pageopacity="0.0"
     inkscape:pageshadow="2"
     inkscape:zoom="1"
     inkscape:cx="-132.14286"
     inkscape:cy="238.57143"
     inkscape:document-units="px"
     inkscape:current-layer="layer1"
     showgrid="false"
     inkscape:window-width="1920"
     inkscape:window-height="1125"
     inkscape:window-x="-9"
     inkscape:window-y="-9"
     inkscape:window-maximized="1" />
  <metadata
     id="metadata7">
    <rdf:RDF>
      <cc:Work
         rdf:about="">
        <dc:format>image/svg+xml</dc:format>
        <dc:type
           rdf:resource="http://purl.org/dc/dcmitype/StillImage" />
        <dc:title></dc:title>
      </cc:Work>
    </rdf:RDF>
  </metadata>
  <g
     inkscape:label="Layer 1"
     inkscape:groupmode="layer"
     id="layer1"
     transform="translate(0,-1012.3622)">
    <g
       id="g4112"
       transform="matrix(0.10665926,0,0,0.10669689,14.211309,989.89434)"
       style="fill:#acd6d3;fill-opacity:1">
      <path
         style="fill:#acd6d3;fill-opacity:1"
         d="m -98.609739,579.82507 c -13.982851,-7.00966 -22.084561,-15.10959 -28.004761,-27.99859 -2.36838,-5.15625 -4.82222,-10.35174 -5.45297,-11.54554 -1.63045,-3.08589 -1.52839,-283.45446 0.10318,-283.45446 0.6875,0 1.25,-1.04942 1.25,-2.33205 0,-4.53788 8.84201,-19.92207 15.10979,-26.2895 6.00189,-6.09731 21.214931,-15.12845 25.484011,-15.12845 1.04841,0 1.9062,-0.5625 1.9062,-1.25 0,-0.82606 48.54167,-1.25 143.125,-1.25 78.718749,0 143.124999,0.47346 143.124999,1.05214 0,0.57868 2.29585,1.73999 5.10189,2.5807 14.19561,4.25311 29.60392,19.31714 34.96082,34.17966 0.92923,2.57813 2.13901,4.6875 2.6884,4.6875 0.54939,0 0.99889,65.25 0.99889,145 0,79.75 -0.45139,145 -1.00308,145 -0.55168,0 -1.97212,2.67188 -3.15653,5.9375 -4.82392,13.30036 -18.96508,26.99531 -33.61847,32.55763 -3.22135,1.22281 -6.25786,2.62413 -6.7478,3.11407 -0.48993,0.48994 -64.78141,0.83976 -142.869959,0.7774 l -141.97916,-0.11341 -11.02045,-5.5246 z M 113.46741,510.56705 c 24.4404,-6.15836 43.64705,-23.66278 52.33021,-47.69233 2.75009,-7.61053 2.86309,-9.43913 2.86309,-46.33093 l 0,-38.4077 -3.46256,-3.4673 c -3.24117,-3.24561 -4.31037,-3.509 -16.72198,-4.11923 -13.16015,-0.64704 -13.28526,-0.68287 -16.71026,-4.78546 -2.91851,-3.49592 -3.58354,-5.72672 -4.31116,-14.46168 -2.77391,-33.30056 -26.19484,-59.72838 -58.932619,-66.49869 -7.30687,-1.51109 -15.76734,-1.823 -39.57748,-1.45908 -29.69923962,0.45393 -30.4649496,0.53143 -39.65894,4.01406 -24.88036,9.42453 -41.26588,27.72361 -47.65267,53.21777 -2.50632,10.00445 -2.48168,105.14542 0.0298,115 7.24003,28.40876 26.95937,48.367 54.4978904,55.15816 7.51109,1.85228 15.7410196,2.16812 58.1249996,2.23063 45.187,0.0666 50.206819,-0.13676 59.181699,-2.39821 z M 3.1614614,448.45883 c -5.74246,-6.9666 -4.92566,-14.48229 2.14721,-19.75735 3.18573,-2.37596 5.5847196,-2.51652 48.3520396,-2.83301 42.92012,-0.31763 45.18496,-0.21908 49.001809,2.13222 5.95073,3.66581 8.49333,9.32674 6.77104,15.07524 -2.90644,9.70084 -0.84213,9.33246 -54.526979,9.73021 l -47.8693596,0.35465 -3.87576,-4.70196 z m 5.3973,-79.05619 c -1.43108,-0.59941 -4.10295,-2.87366 -5.9375,-5.0539 -4.64433,-5.51946 -4.46255,-11.15169 0.54394,-16.85376 l 3.87948,-4.4185 25.5575896,0 c 28.3194,0 31.35108,0.66207 34.16758,7.4617 2.15542,5.20366 0.79617,12.32554 -3.0959,16.22111 -3.18358,3.18643 -3.23389,3.19268 -27.85129,3.46269 -13.56408,0.14876 -25.8328196,-0.21994 -27.2638996,-0.81934 z"
         id="path4114"
         inkscape:connector-curvature="0" />
    </g>
  </g>
</svg>
