<?xml version="1.0" encoding="UTF-8" standalone="no"?>
<!-- Created with Inkscape (http://www.inkscape.org/) -->

<svg
   xmlns:dc="http://purl.org/dc/elements/1.1/"
   xmlns:cc="http://creativecommons.org/ns#"
   xmlns:rdf="http://www.w3.org/1999/02/22-rdf-syntax-ns#"
   xmlns:svg="http://www.w3.org/2000/svg"
   xmlns="http://www.w3.org/2000/svg"
   xmlns:sodipodi="http://sodipodi.sourceforge.net/DTD/sodipodi-0.dtd"
   xmlns:inkscape="http://www.inkscape.org/namespaces/inkscape"
   width="50"
   height="40"
   id="svg2"
   version="1.1"
   inkscape:version="0.48+devel r13279"
   viewBox="0 0 50 40.000001"
   sodipodi:docname="twitterlink.svg">
  <defs
     id="defs4" />
  <sodipodi:namedview
     id="base"
     pagecolor="#ffffff"
     bordercolor="#666666"
     borderopacity="1.0"
     inkscape:pageopacity="0.0"
     inkscape:pageshadow="2"
     inkscape:zoom="2"
     inkscape:cx="-3.519585"
     inkscape:cy="36.12376"
     inkscape:document-units="px"
     inkscape:current-layer="layer1"
     showgrid="false"
     inkscape:window-width="1526"
     inkscape:window-height="984"
     inkscape:window-x="2"
     inkscape:window-y="2"
     inkscape:window-maximized="0" />
  <metadata
     id="metadata7">
    <rdf:RDF>
      <cc:Work
         rdf:about="">
        <dc:format>image/svg+xml</dc:format>
        <dc:type
           rdf:resource="http://purl.org/dc/dcmitype/StillImage" />
        <dc:title></dc:title>
      </cc:Work>
    </rdf:RDF>
  </metadata>
  <g
     inkscape:label="Layer 1"
     inkscape:groupmode="layer"
     id="layer1"
     transform="translate(0,-1012.3622)">
    <g
       id="g4125"
       transform="matrix(0.04296556,0,0,0.04223173,32.191558,1015.5529)">
      <path
         style="fill:#acd6d3;fill-opacity:1"
         d="m -429.00004,871.34 c -2.40625,-0.27554 -13.09375,-1.37571 -23.75,-2.44483 -85.57779,-8.58589 -164.83298,-32.04384 -241.73326,-71.54821 -35.02851,-17.99446 -63.39526,-35.48582 -52.32923,-32.26696 1.20313,0.34996 10.90625,1.30982 21.5625,2.13305 45.13635,3.48687 102.37333,-1.85597 150,-14.00189 58.71452,-14.9736 111.76054,-39.66615 162.13058,-75.47065 l 15.8219,-11.24666 -17.32325,-1.63129 c -90.27578,-8.50106 -168.55487,-67.84553 -201.25611,-152.57505 -2.48351,-6.43481 -4.29743,-11.91769 -4.03093,-12.18418 0.26649,-0.26649 3.81414,0.1998 7.88366,1.03619 12.37734,2.54385 62.3197,2.07673 77.39915,-0.72393 6.875,-1.27687 14.18002,-3.00253 16.23339,-3.83481 3.64148,-1.47596 3.45825,-1.58222 -7.44443,-4.31669 -98.39412,-24.67797 -172.79588,-115.40569 -177.71781,-216.71441 -0.45926,-9.45312 -0.4538,-17.1875 0.0125,-17.1875 0.46595,0 5.19408,2.17942 10.50694,4.84315 12.74837,6.3917 31.91381,13.49794 46.19947,17.13004 13.5042,3.4334 38.51983,7.09235 44.69939,6.53801 l 4.30529,-0.3862 -10.31519,-7.67906 C -671.3879,231.72799 -708.42126,149.2743 -701.694,70.525763 c 2.90976,-34.06132 12.77838,-68.1905499 27.32038,-94.48364 3.58807,-6.4875 4.67567,-7.63409 5.92844,-6.25 0.84384,0.93228 7.39233,8.43678 14.5522,16.67668 42.60733,49.03437 94.24084,93.06478 150.66987,128.483577 81.02745,50.85845 172.3374,84.32894 264.84807,97.08246 21.58976,2.97638 59.26986,6.53985 60.58136,5.72932 0.48894,-0.30219 0.16649,-4.08813 -0.71656,-8.4132 -0.88304,-4.32508 -2.19824,-13.689 -2.92266,-20.80871 -9.08284,-89.267223 31.39006,-174.923617 106.182863,-224.724237 56.413954,-37.56309 127.148624,-48.88454 195.000007,-31.21076 37.2924,9.71385 75.54825,31.70854 105.23799,60.5051701 l 7.11298,6.89902001 23.51202,-5.96403001 c 24.80327,-6.2915801 49.00632,-14.3300201 69.76201,-23.1697201 14.052,-5.98465 40.4724,-19.02933 50.41465,-24.89149 3.6137,-2.13072 6.79335,-3.87403 7.06589,-3.87403 1.25201,0 -6.2284,19.17078 -12.37663,31.71879 -17.38684,35.4851201 -44.65053,67.55385 -76.78387,90.31651 -8.06299,5.71166 -12.05778,9.21471 -10.50824,9.21471 6.19409,0 35.40976,-5.66919 55.81722,-10.83111 22.43677,-5.67523 48.32585,-14.16935 65.61869,-21.52925 5.08625,-2.16474 9.51126,-3.67234 9.83336,-3.35024 0.67635,0.67636 -12.16495,18.4697 -25.77205,35.7106 -13.81243,17.501074 -58.00676,60.993377 -76.37228,75.159117 l -15.56327,12.0043 0.32259,22.98079 c 1.07789,76.79033 -13.89716,162.92507 -41.69117,239.80267 -61.54193,170.22355 -182.943703,307.9393 -337.088397,382.38632 -69.782303,33.70265 -139.080013,53.14156 -224.166503,62.88165 -18.13378,2.07583 -31.83883,2.64241 -70.625,2.91978 -26.46875,0.18927 -50.09375,0.11875 -52.5,-0.15681 z"
         id="path4127"
         inkscape:connector-curvature="0" />
    </g>
  </g>
</svg>
