<?xml version="1.0" encoding="UTF-8" standalone="no"?>
<!-- Created with Inkscape (http://www.inkscape.org/) -->

<svg
   xmlns:dc="http://purl.org/dc/elements/1.1/"
   xmlns:cc="http://creativecommons.org/ns#"
   xmlns:rdf="http://www.w3.org/1999/02/22-rdf-syntax-ns#"
   xmlns:svg="http://www.w3.org/2000/svg"
   xmlns="http://www.w3.org/2000/svg"
   xmlns:sodipodi="http://sodipodi.sourceforge.net/DTD/sodipodi-0.dtd"
   xmlns:inkscape="http://www.inkscape.org/namespaces/inkscape"
   width="200"
   height="200"
   id="svg4648"
   version="1.1"
   inkscape:version="0.48+devel r13279"
   viewBox="0 0 200 200"
   sodipodi:docname="InvertedLogo.svg">
  <defs
     id="defs4650" />
  <sodipodi:namedview
     id="base"
     pagecolor="#ffffff"
     bordercolor="#666666"
     borderopacity="1.0"
     inkscape:pageopacity="0.0"
     inkscape:pageshadow="2"
     inkscape:zoom="0.5"
     inkscape:cx="252.91844"
     inkscape:cy="336.43821"
     inkscape:document-units="px"
     inkscape:current-layer="layer1"
     showgrid="false"
     inkscape:window-width="1920"
     inkscape:window-height="1125"
     inkscape:window-x="-9"
     inkscape:window-y="-9"
     inkscape:window-maximized="1" />
  <metadata
     id="metadata4653">
    <rdf:RDF>
      <cc:Work
         rdf:about="">
        <dc:format>image/svg+xml</dc:format>
        <dc:type
           rdf:resource="http://purl.org/dc/dcmitype/StillImage" />
        <dc:title></dc:title>
      </cc:Work>
    </rdf:RDF>
  </metadata>
  <g
     inkscape:label="Layer 1"
     inkscape:groupmode="layer"
     id="layer1"
     transform="translate(0,-852.3622)">
    <g
       id="g4136"
       transform="matrix(2.015873,0,0,2.015873,-1.6749928,1684.1426)">
      <circle
         r="49.6063"
         cy="-363.00919"
         cx="50.437199"
         id="path4180"
         style="fill:#80c0bb;fill-opacity:1;stroke:none"
         d="m 100.0435,-363.00919 a 49.6063,49.6063 0 0 1 -49.606301,49.6063 49.6063,49.6063 0 0 1 -49.60630072,-49.6063 49.6063,49.6063 0 0 1 49.60630072,-49.6063 49.6063,49.6063 0 0 1 49.606301,49.6063 z" />
      <g
         id="text3166-1-12-2-1-8-9"
         style="font-size:170.07923889px;font-style:normal;font-variant:normal;font-weight:normal;font-stretch:normal;line-height:125%;letter-spacing:0px;word-spacing:0px;fill:#ffffff;fill-opacity:1;stroke:none;font-family:Franklin Gothic Demi;-inkscape-font-specification:Franklin Gothic Demi"
         transform="matrix(0.49212598,0,0,0.49212598,6.1458618,-836.6122)">
        <path
           id="path4446-5-8"
           d="m 90,872.36133 a 90,90 0 0 0 -90,90 90,90 0 0 0 90,89.99997 90,90 0 0 0 90,-89.99997 90,90 0 0 0 -90,-90 z m 0,16.875 A 72.675003,73.125 0 0 1 107.57617,891.5 l -17.697264,49.31836 -10.11914,-28.57617 0,-0.043 -0.898438,-2.53906 -0.01563,0 -6.4375,-18.17774 A 72.675003,73.125 0 0 1 90,889.23633 Z m -30.089844,6.66015 4.875,13.76368 -25.144531,0 a 72.675003,73.125 0 0 1 20.269531,-13.76368 z m 65.318364,2.5293 a 72.675003,73.125 0 0 1 22.16015,19.12891 l 0,56.60742 -0.30859,0 -21.85156,-60.5332 0,-15.20313 z m -12.47266,17.71875 0,85.54687 -15.796876,-41.05273 -0.234375,0 16.031251,-44.49414 z m -77.378907,6.86133 34.134766,0 13.449219,37.9668 -15.388672,39.92574 -7.617188,0 0,0 -24.578125,0 0,-32.53712 23.001953,0 0,0.002 1.9375,0 5.117188,-13.42968 -4.703125,0.008 -25.353516,0 0,-31.9375 z m -14.994141,18.48437 0,41.67579 a 72.675003,73.125 0 0 1 -3.058593,-20.80469 72.675003,73.125 0 0 1 3.058593,-20.8711 z m 139.472658,0.78907 a 72.675003,73.125 0 0 1 2.82031,20.08203 72.675003,73.125 0 0 1 -2.82031,19.93164 l 0,-40.01367 z m -34.62695,6.77929 0.30273,0 21.10547,59.01951 a 72.675003,73.125 0 0 1 -21.46094,18.1778 l 0,-11.9903 0.0469,0 0,-58.87107 0.006,0.0234 0,-6.35938 z m -35.107426,30.62305 5.828125,15.08984 c 0.0061,-5e-5 0.01545,5e-5 0.02148,0 l 3.208985,8.36722 0.464843,1.2011 -0.0039,0 5.115233,13.3301 0.0156,0 1.45704,3.8399 0.81054,2.1132 -0.01,0 3.35547,8.8418 0.125,0 A 72.675003,73.125 0 0 1 90,1035.4863 72.675003,73.125 0 0 1 69.474609,1032.4648 l 0.140625,0 3.544922,-8.9511 -0.0059,0 3.582031,-9.2696 4.447266,0 7.785156,0 0,0.024 4.074219,0 5.09375,-13.3125 -9.447266,-0.062 0,0.01 -6.802734,0 1.304687,-3.36129 1.054688,-2.72656 c 5.17e-4,9.7e-4 0.0034,9.8e-4 0.0039,0.002 l 5.871094,-15.13086 z m -51.257813,34.56246 21.091797,0 2.472656,0 -5.136718,13.3282 a 72.675003,73.125 0 0 1 -18.427735,-13.3282 z"
           style="font-size:100px;font-weight:bold;fill:#ffffff;fill-opacity:1;stroke:none;font-family:Century Gothic;-inkscape-font-specification:Century Gothic Bold"
           inkscape:connector-curvature="0" />
      </g>
    </g>
  </g>
</svg>
